<?xml version="1.0" encoding="utf-8"?>
<!-- Generator: Adobe Illustrator 24.1.2, SVG Export Plug-In . SVG Version: 6.00 Build 0)  -->
<svg version="1.1" id="Layer_1" xmlns="http://www.w3.org/2000/svg" xmlns:xlink="http://www.w3.org/1999/xlink" x="0px" y="0px"
	 viewBox="0 0 408 164" style="enable-background:new 0 0 408 164;" xml:space="preserve">
<style type="text/css">
	.st0{fill-rule:evenodd;clip-rule:evenodd;fill:#F5E0D8;}
	.st1{fill-rule:evenodd;clip-rule:evenodd;fill:url(#Fill-7_1_);}
	.st2{fill-rule:evenodd;clip-rule:evenodd;fill:#9D1535;}
	.st3{fill:none;}
	.st4{fill-rule:evenodd;clip-rule:evenodd;fill:url(#Fill-13_1_);}
	.st5{fill-rule:evenodd;clip-rule:evenodd;fill:url(#Fill-18_1_);}
	.st6{fill-rule:evenodd;clip-rule:evenodd;fill:url(#Fill-23_1_);}
	.st7{fill-rule:evenodd;clip-rule:evenodd;fill:#262626;}
</style>
<title>Corcept_newlogocolor</title>
<desc>Created with Sketch.</desc>
<g id="Symbols">
	<g>
		<g id="Corcept_newlogocolor">
			<g id="Group-8" transform="translate(0.000000, 62.000000)">
				<polyline id="Fill-5" class="st0" points="36,1 0.6,27.5 0.6,62.9 36,89.4 71.3,62.9 71.3,27.5 36,1 				"/>
				
					<linearGradient id="Fill-7_1_" gradientUnits="userSpaceOnUse" x1="6.9152" y1="323.9791" x2="5.9152" y2="323.9791" gradientTransform="matrix(70.77 0 0 -88.461 -418.044 28704.7324)">
					<stop  offset="0" style="stop-color:#A5273A"/>
					<stop  offset="0.477" style="stop-color:#DA8F90"/>
					<stop  offset="1" style="stop-color:#FBE7E7"/>
				</linearGradient>
				<polyline id="Fill-7" class="st1" points="36,1 0.6,27.5 0.6,62.9 36,89.4 71.3,62.9 71.3,27.5 36,1 				"/>
			</g>
			<path id="Fill-9" class="st2" d="M35.7,62.6L0.1,89.3v35.9L36,152.1l35.9-26.9V89.3L36,62.4L35.7,62.6z M36,63.6
				c0.6,0.4,34.5,25.9,34.9,26.2c0,0.5,0,34.4,0,34.9c-0.4,0.3-34.3,25.7-34.9,26.2c-0.6-0.4-34.5-25.9-34.9-26.2
				c0-0.5,0-34.4,0-34.9C1.5,89.5,35.4,64.1,36,63.6z"/>
			<g id="Group-14" transform="translate(70.000000, 62.000000)">
				<polyline id="Fill-10" class="st0" points="36.2,1 0.8,27.5 0.8,62.9 36.2,89.4 71.6,62.9 71.6,27.5 36.2,1 				"/>
				<polyline id="Fill-12" class="st3" points="36.2,1 0.8,27.5 0.8,62.9 36.2,89.4 71.6,62.9 71.6,27.5 36.2,1 				"/>
				
					<linearGradient id="Fill-13_1_" gradientUnits="userSpaceOnUse" x1="-63.0848" y1="323.9791" x2="-64.0848" y2="323.9791" gradientTransform="matrix(70.769 0 0 -88.461 4536.0166 28704.7324)">
					<stop  offset="0" style="stop-color:#A5273A"/>
					<stop  offset="0.4662" style="stop-color:#DA8F90"/>
					<stop  offset="1" style="stop-color:#FBE7E7"/>
				</linearGradient>
				<polyline id="Fill-13" class="st4" points="36.2,1 0.8,27.5 0.8,62.9 36.2,89.4 71.6,62.9 71.6,27.5 36.2,1 				"/>
			</g>
			<path id="Fill-15" class="st2" d="M105.9,62.6L70.3,89.3v35.9l35.9,26.9l35.9-26.9V89.3l-35.9-26.9L105.9,62.6z M106.2,63.6
				c0.6,0.4,34.5,25.9,34.9,26.2c0,0.5,0,34.4,0,34.9c-0.4,0.3-34.3,25.7-34.9,26.2c-0.6-0.4-34.5-25.9-34.9-26.2
				c0-0.5,0-34.4,0-34.9C71.7,89.5,105.6,64.1,106.2,63.6z"/>
			<g id="Group-19" transform="translate(106.000000, 1.000000)">
				<polyline id="Fill-16" class="st0" points="35.6,0 0.2,26.6 0.2,62 35.6,88.5 70.9,62 70.9,26.6 35.6,0 				"/>
				
					<linearGradient id="Fill-18_1_" gradientUnits="userSpaceOnUse" x1="-99.0848" y1="384.9792" x2="-100.0848" y2="384.9792" gradientTransform="matrix(70.767 0 0 -88.462 7082.8818 34100.2969)">
					<stop  offset="0" style="stop-color:#A5273A"/>
					<stop  offset="0.477" style="stop-color:#DA8F90"/>
					<stop  offset="1" style="stop-color:#FBE7E7"/>
				</linearGradient>
				<polyline id="Fill-18" class="st5" points="35.6,0 0.2,26.6 0.2,62 35.6,88.5 70.9,62 70.9,26.6 35.6,0 				"/>
			</g>
			<path id="Fill-20" class="st2" d="M141.3,0.6l-35.6,26.7v35.9l35.9,26.9l35.9-26.9V27.3L141.6,0.4L141.3,0.6z M141.6,1.7
				c0.6,0.4,34.5,25.9,34.9,26.2c0,0.5,0,34.4,0,34.9c-0.4,0.3-34.3,25.7-34.9,26.2c-0.6-0.4-34.5-25.9-34.9-26.2
				c0-0.5,0-34.4,0-34.9C107.1,27.5,141,2.1,141.6,1.7z"/>
			<g id="Group-24" transform="translate(176.000000, 1.000000)">
				<polyline id="Fill-21" class="st0" points="35.8,0 0.4,26.6 0.4,62 35.8,88.5 71.2,62 71.2,26.6 35.8,0 				"/>
				
					<linearGradient id="Fill-23_1_" gradientUnits="userSpaceOnUse" x1="-169.0848" y1="384.9792" x2="-170.0848" y2="384.9792" gradientTransform="matrix(70.772 0 0 -88.462 12037.6455 34100.2969)">
					<stop  offset="0" style="stop-color:#A5273A"/>
					<stop  offset="0.477" style="stop-color:#DA8F90"/>
					<stop  offset="1" style="stop-color:#FBE7E7"/>
				</linearGradient>
				<polyline id="Fill-23" class="st6" points="35.8,0 0.4,26.6 0.4,62 35.8,88.5 71.2,62 71.2,26.6 35.8,0 				"/>
			</g>
			<path id="Fill-25" class="st2" d="M211.5,0.6l-35.6,26.7v35.9l35.9,26.9l35.9-26.9V27.3L211.8,0.4L211.5,0.6z M211.8,1.7
				c0.6,0.4,34.5,25.9,34.9,26.2c0,0.5,0,34.4,0,34.9c-0.4,0.3-34.3,25.7-34.9,26.2c-0.6-0.4-34.5-25.9-34.9-26.2
				c0-0.5,0-34.4,0-34.9C177.3,27.5,211.2,2.1,211.8,1.7z"/>
			<polyline id="Fill-26" class="st2" points="36.2,139.4 36.8,140.2 60.9,122.1 60.3,121.3 36.2,139.4 			"/>
			<polyline id="Fill-27" class="st7" points="202.8,152.3 199.3,152.3 199.3,150.3 208.7,150.3 208.7,152.3 205.2,152.3 205.1,163 
				202.7,163 202.8,152.3 			"/>
			<polyline id="Fill-28" class="st7" points="211.7,150.3 214.1,150.3 214.1,155.5 219.7,155.5 219.7,150.3 222.1,150.3 222,163 
				219.6,163 219.7,157.5 214.1,157.5 214,163 211.6,163 211.7,150.3 			"/>
			<polyline id="Fill-29" class="st7" points="226.2,150.3 233,150.3 233,152.3 228.5,152.3 228.5,155.6 232.9,155.6 232.9,157.5 
				228.5,157.5 228.5,161 233,161 233,163 226.1,163 226.2,150.3 			"/>
			<path id="Fill-30" class="st7" d="M238.9,156l0-3.8h1.4c1.2,0,2.1,0.6,2.1,1.8c0,1.7-1.4,2-2.1,2H238.9z M236.4,163h2.4l0-5.1
				h0.7c0.3,0,0.6,0.1,0.8,0.4l3.5,4.9l2.1-1.2l-3.6-4.7c1.5-0.5,2.5-1.7,2.5-3.3c0-2-1.3-3.7-4.3-3.7h-4L236.4,163z"/>
			<path id="Fill-31" class="st7" d="M255.1,157.7H252l1.6-5h0L255.1,157.7z M251.3,159.6h4.4l1.2,3.6l2.3-0.7l-4.5-12.3h-2.2
				l-4.9,12.3l2.2,0.7L251.3,159.6z"/>
			<path id="Fill-32" class="st7" d="M264.7,156.1l0-3.9h1.2c1.7,0,2.1,1.2,2.1,1.9c0,1.2-1,2-2.2,2H264.7z M262.2,163h2.4l0-5h1.3
				c2.5,0,4.6-1.2,4.6-3.8c0-2.4-1.3-3.9-4.6-3.9h-3.6L262.2,163z"/>
			<polyline id="Fill-33" class="st7" points="273.7,150.3 280.5,150.3 280.5,152.3 276.1,152.3 276,155.6 280.4,155.6 280.4,157.5 
				276,157.5 276,161 280.5,161 280.5,163 273.6,163 273.7,150.3 			"/>
			<path id="Fill-34" class="st7" d="M294.3,158.4c0,3.1-2.2,4.8-5.2,4.8c-3,0-5.1-1.7-5.1-5c0-2.7,0.1-5.3,0.1-8h2.4
				c0,2.7-0.1,5.4-0.1,8.1c0,1.8,1.2,2.8,2.8,2.8c1.9,0,2.8-1.2,2.8-3l0.1-8h2.4L294.3,158.4"/>
			<polyline id="Fill-35" class="st7" points="300.9,152.3 297.3,152.3 297.3,150.3 306.8,150.3 306.7,152.3 303.2,152.3 303.1,163 
				300.8,163 300.9,152.3 			"/>
			<polyline id="Fill-36" class="st7" points="309.7,150.3 312.1,150.3 312,163 309.6,163 309.7,150.3 			"/>
			<path id="Fill-37" class="st7" d="M326.5,162c-1.2,0.8-2.6,1.2-4,1.2c-3.8,0-6.6-2.8-6.6-6.6c0-3.9,2.7-6.6,6.5-6.6
				c1.5,0,3,0.5,4.1,1.5l-1,1.6c-0.8-0.7-2-1.1-3-1.1c-2.5,0-4.1,2-4.1,4.5c0,2.4,1.7,4.7,4,4.7c1.6,0,2.4-0.4,3.2-0.8L326.5,162"/>
			<path id="Fill-38" class="st7" d="M329.6,160.5c0.6,0.4,1.5,0.9,2.2,0.9c1.3,0,2-0.8,2-1.8c0-2.5-5.2-1.4-5.2-5.8
				c0-2.1,1.7-3.7,4.2-3.7c1.3,0,2.5,0.4,3.6,1.1l-1,1.7c-0.8-0.4-1.5-0.8-2.4-0.8c-1.1,0-2.1,0.6-2.1,1.7c0,2.5,5.3,1.7,5.3,5.8
				c0,2.2-1.7,3.8-4.2,3.8c-1.2,0-2.4-0.4-3.4-1L329.6,160.5"/>
			<path id="Fill-39" class="st7" d="M198.1,137.2c-4.9,3.4-10.8,5.1-16.8,5.1c-15.7,0-27.4-11.5-27.4-27.3
				c0-16.2,11.3-27.6,27-27.6c6.3,0,12.4,2.1,17.2,6.1l-4.3,6.8c-3.2-2.7-8.5-4.5-12.7-4.5c-10.3,0-17.1,8.2-17.1,18.8
				c0,10.1,6.9,19.4,16.8,19.4c6.7,0,10.1-1.6,13.3-3.4L198.1,137.2"/>
			<path id="Fill-40" class="st7" d="M211.5,122.4c0-5.3,2.1-13.1,9.1-13.1c6.2,0,9.1,5.1,9.1,13.1c0,5.3-2.4,12.5-9.1,12.5
				C213.6,134.9,211.5,127,211.5,122.4z M202.1,122.1c0,10.9,5.9,20.3,18.4,20.3c11.6,0,18.4-9.4,18.4-20.3
				c0-11.4-6.2-20.3-18.4-20.3C209.2,101.8,202.1,111.9,202.1,122.1z"/>
			<path id="Fill-41" class="st7" d="M247.1,102.9h9.3v7l0.1,0.2c1.8-4.4,4.2-8.1,8.9-8.2c0.9,0,1.8,0.2,2.7,0.4l-1.5,8.9
				c-0.8-0.2-1.5-0.3-2.2-0.3c-3.6,0-6.2,2.7-8.1,6.7l-0.2,23.8h-9.4L247.1,102.9"/>
			<path id="Fill-42" class="st7" d="M301,135c-3.7,4.6-8.2,7.3-14.3,7.3c-11,0-16.7-10.4-16.7-19.7c0-10.6,6.6-20.9,18.1-20.9
				c5.6,0,10,2.7,13.4,6.5l-5.3,5.1c-2.4-1.9-4.5-3.7-7.8-3.7c-5.8,0-8.7,6.3-8.7,12.1c0,8.1,3.6,12.6,8.2,12.6
				c3.4,0,5.7-2.1,7.9-4.3L301,135"/>
			<path id="Fill-43" class="st7" d="M313.6,116.7c0.4-3.8,3.6-8.3,7.8-8.3c4.9,0,6.8,4.2,7,8.3H313.6z M337.2,123.2
				c0-13.4-5-21.4-15.9-21.4c-11.2,0-17.5,10.2-17.5,20.4c0,12.1,7,20.1,16.8,20.1c6.3,0,11.6-3,15.6-7.6l-5.3-4.9
				c-2.4,2.5-5.3,5-8.9,5c-6.4,0-8.8-6.4-8.8-11.7H337.2z"/>
			<path id="Fill-44" class="st7" d="M353.1,115.7c0.5-3.3,3-6,6.9-6c5.6,0,9.5,5,9.5,12.3c0,7.7-5,12.3-9.7,12.3
				c-3.4,0-5.3-1.9-6.6-3.5V115.7z M343.4,159.7h9.3l0.2-21.2h0.2c2.1,2.7,5.6,3.7,8.7,3.7c11,0,16.9-10.3,16.9-20.7
				c0-11.6-6.7-19.8-16.3-19.8c-4,0-7.8,2.2-9.7,5.1h-0.2v-4h-8.9L343.4,159.7z"/>
			<path id="Fill-45" class="st7" d="M407.4,139.2l-3.1,1.7c-2.4,1.4-4.7,1.5-5.8,1.5c-6.4,0-10.5-3.4-10.5-11.5
				c0-1.8,0-5.9,0.1-9.2l0.2-11.7h-5.2v-7l5.2,0.1l0.3-13.7h9.3l-0.3,13.7l8.5-0.1v7h-8.5l-0.2,11.3c-0.1,3.8-0.1,7.3-0.1,10.1
				c0,2.5,0.8,4,3.1,4c1.6,0,3-0.9,4.3-1.8L407.4,139.2"/>
		</g>
	</g>
</g>
</svg>
