<?xml version="1.0" encoding="utf-8"?>
<!-- Generator: Adobe Illustrator 24.1.2, SVG Export Plug-In . SVG Version: 6.00 Build 0)  -->
<svg version="1.1" id="Layer_1" xmlns="http://www.w3.org/2000/svg" xmlns:xlink="http://www.w3.org/1999/xlink" x="0px" y="0px"
	 viewBox="0 0 216 72" style="enable-background:new 0 0 216 72;" xml:space="preserve">
<style type="text/css">
	.st0{fill:#403E94;}
	.st1{fill:url(#SVGID_1_);}
</style>
<g>
	<path class="st0" d="M9.64,25.16c0-4.66,0.18-6.41,0.88-8.58c1.61-5.07,5.95-7.61,11.53-7.61c5.86,0,9.68,2.91,11.16,6.68
		c0.14,0.28,0.09,0.55-0.18,0.69l-4.93,2.07c-0.32,0.09-0.55,0-0.65-0.23c-1.25-2.12-2.81-3.23-5.39-3.23
		c-2.67,0-4.33,1.34-5.03,3.5c-0.37,1.11-0.51,2.58-0.51,6.68s0.14,5.63,0.51,6.73c0.69,2.17,2.4,3.46,5.12,3.46
		c2.35,0,4.38-1.15,5.03-3.23c0.2-0.67,0.33-1.47,0.36-2.51c0.02-0.46-0.35-0.85-0.81-0.85l-3.16,0c-0.55,0-1-0.45-1-1V24.4
		c0-0.55,0.45-1,1-1h9.72c0.55,0,1,0.45,1,1v2.05c0,2.77-0.23,5.35-0.78,7.05c-1.57,5.03-5.9,7.84-11.43,7.84
		c-5.58,0-9.91-2.54-11.53-7.61C9.83,31.57,9.64,29.81,9.64,25.16z"/>
	<path class="st0" d="M55.84,40.83c-0.37,0-0.55-0.14-0.69-0.46L49.3,28.46c-0.09-0.18-0.28-0.3-0.48-0.3H44.3
		c-0.45,0-0.81,0.36-0.81,0.81v10.87c0,0.55-0.45,1-1,1h-3.45c-0.55,0-1-0.45-1-1V10.48c0-0.55,0.45-1,1-1h11.59
		c5.76,0,10,3.83,10,9.36c0,3.89-2.12,6.96-5.41,8.4c-0.29,0.13-0.42,0.46-0.27,0.73l6.33,12.26c0.18,0.32,0,0.6-0.32,0.6H55.84z
		 M55.24,18.84c0-2.72-1.94-4.47-4.79-4.47H44.3c-0.45,0-0.81,0.36-0.81,0.81v7.27c0,0.45,0.36,0.81,0.81,0.81h6.15
		C53.31,23.27,55.24,21.52,55.24,18.84z"/>
	<path class="st0" d="M101.04,10.48c0-0.55,0.45-1,1-1h8.68c5.12,0,8.48,1.94,9.82,6.09c0.65,1.98,0.88,3.74,0.88,9.59
		c0,5.86-0.23,7.61-0.88,9.59c-1.34,4.15-4.7,6.09-9.82,6.09h-8.69c-0.55,0-1-0.45-1-1V10.48z M103.29,39.5h7.44
		c4.33,0,7.28-1.52,8.44-5.07c0.6-1.84,0.83-3.6,0.83-9.27s-0.23-7.42-0.83-9.27c-1.15-3.55-4.1-5.07-8.44-5.07h-7.44
		c-0.45,0-0.81,0.36-0.81,0.81v27.05C102.47,39.13,102.84,39.5,103.29,39.5z"/>
	<path class="st0" d="M127.88,9.94c0-0.28,0.18-0.46,0.46-0.46h0.51c0.28,0,0.46,0.18,0.46,0.46v30.43c0,0.28-0.18,0.46-0.46,0.46
		h-0.51c-0.28,0-0.46-0.18-0.46-0.46V9.94z"/>
	<path class="st0" d="M136.87,9.94c0-0.25,0.21-0.46,0.46-0.46h17.24c0.28,0,0.46,0.18,0.46,0.46v0.42c0,0.28-0.18,0.46-0.46,0.46
		h-16c-0.15,0-0.28,0.12-0.28,0.28v12.86c0,0.15,0.12,0.28,0.28,0.28h13.83c0.28,0,0.46,0.18,0.46,0.46v0.42
		c0,0.28-0.19,0.46-0.46,0.46h-13.83c-0.15,0-0.28,0.12-0.28,0.28v13.37c0,0.15,0.12,0.28,0.28,0.28h16c0.28,0,0.46,0.18,0.46,0.46
		v0.42c0,0.28-0.18,0.46-0.46,0.46h-17.24c-0.25,0-0.46-0.21-0.46-0.46V9.94z"/>
	<path class="st0" d="M160.39,9.94c0-0.28,0.18-0.46,0.46-0.46h0.42c0.28,0,0.55,0.05,0.78,0.46l17.24,27.8h0.14V9.94
		c0-0.28,0.18-0.46,0.46-0.46h0.51c0.28,0,0.46,0.18,0.46,0.46v30.43c0,0.28-0.19,0.46-0.46,0.46h-0.42c-0.28,0-0.55-0.05-0.78-0.46
		l-17.24-27.8h-0.14v27.8c0,0.28-0.18,0.46-0.46,0.46h-0.51c-0.28,0-0.46-0.18-0.46-0.46V9.94z"/>
	<path class="st0" d="M195.29,40.83c-0.28,0-0.46-0.18-0.46-0.46V11.1c0-0.15-0.12-0.28-0.28-0.28h-9.36
		c-0.28,0-0.46-0.18-0.46-0.46V9.94c0-0.28,0.18-0.46,0.46-0.46h20.7c0.28,0,0.46,0.18,0.46,0.46v0.42c0,0.28-0.19,0.46-0.46,0.46
		h-9.36c-0.15,0-0.28,0.12-0.28,0.28v29.28c0,0.28-0.18,0.46-0.46,0.46H195.29z"/>
	<path class="st0" d="M97.17,35.09c-0.79-1.17-1.95-1.72-3.29-1.81c-1.02-0.07-2.03,0.09-3.05,0.11c-2.92,0.04-5.56-1.1-8.25-2.12
		c-2.52-0.96-5.26-1.64-7.95-1.36c-2.92,0.3-5.44,1.22-7.63,3.28c-1.21,1.14-2.48,2.9-2.1,4.72c0.23,1.1,1.08,2.01,2.1,2.35
		c1.3,0.43,2.3-0.2,3.48-0.61c4.48-1.57,8.78-2.48,13.57-2.16c1.95,0.13,3.89,0.61,5.64,1.52c1.63,0.85,3.08,1.72,5.01,1.61
		c0.76-0.05,1.54-0.27,2.14-0.77C98.26,38.65,98.13,36.53,97.17,35.09z"/>
	<linearGradient id="SVGID_1_" gradientUnits="userSpaceOnUse" x1="73.7685" y1="19.3986" x2="85.6195" y2="34.2925">
		<stop  offset="0" style="stop-color:#F5841F"/>
		<stop  offset="0.1633" style="stop-color:#F58D1C"/>
		<stop  offset="0.4306" style="stop-color:#F7A615"/>
		<stop  offset="0.7666" style="stop-color:#F8CD09"/>
		<stop  offset="1" style="stop-color:#FAED00"/>
	</linearGradient>
	<path class="st1" d="M66.1,29.51c-0.47,0.71,0.31,1.77,0.97,1.27c1.48-1.11,3.12-2.12,4.81-2.81c3.32-1.35,7.08-0.84,10.32,0.52
		c1.61,0.67,3.17,1.52,4.83,2.05c1.16,0.37,2.37,0.59,3.58,0.69c1.17,0.1,2.43,0.21,3.59-0.07c0.27-0.06,0.56-0.19,0.64-0.48
		c0.06-0.24-0.08-0.49-0.21-0.7c-0.95-1.47-1.99-2.85-2.88-4.37c-0.98-1.67-1.89-3.4-2.81-5.11c-0.01-0.02-0.02-0.03-0.03-0.05
		c-1.14-2.12-2.3-4.24-3.34-6.42c-0.66-1.38-1.59-2.83-2.84-3.66c-0.52-0.35-1.13-0.59-1.74-0.59c-0.89,0-1.77,0.46-2.36,1.17
		c-1.84,2.24-3.58,5.18-4.53,6.66c-1.61,2.51-3.45,5.27-5.15,7.71C68,26.71,67.03,28.09,66.1,29.51z"/>
	<g>
		<path class="st0" d="M136.97,60.51c-0.1-0.1-0.14-0.26-0.02-0.41l1.81-2.07c0.1-0.12,0.24-0.12,0.36-0.02
			c1.07,0.86,2.53,1.67,4.24,1.67c1.69,0,2.65-0.79,2.65-1.93c0-0.95-0.57-1.55-2.5-1.81l-0.86-0.12c-3.29-0.45-5.13-2-5.13-4.86
			c0-2.98,2.24-4.96,5.75-4.96c2.15,0,4.15,0.64,5.51,1.69c0.14,0.1,0.17,0.19,0.05,0.36l-1.45,2.17c-0.1,0.12-0.21,0.14-0.33,0.07
			c-1.24-0.81-2.43-1.24-3.77-1.24c-1.43,0-2.17,0.74-2.17,1.76c0,0.93,0.67,1.53,2.53,1.79l0.86,0.12c3.34,0.45,5.1,1.98,5.1,4.91
			c0,2.93-2.17,5.1-6.37,5.1C140.68,62.73,138.23,61.73,136.97,60.51z"/>
		<path class="st0" d="M155.22,62.47c-0.14,0-0.24-0.1-0.24-0.24V49.52c0-0.1-0.05-0.14-0.14-0.14h-4.1c-0.14,0-0.24-0.1-0.24-0.24
			V46.5c0-0.14,0.1-0.24,0.24-0.24h11.99c0.14,0,0.24,0.1,0.24,0.24v2.65c0,0.14-0.1,0.24-0.24,0.24h-4.1
			c-0.1,0-0.14,0.05-0.14,0.14v12.71c0,0.14-0.1,0.24-0.24,0.24H155.22z"/>
		<path class="st0" d="M164.85,56.51V46.5c0-0.14,0.1-0.24,0.24-0.24h3.03c0.14,0,0.24,0.1,0.24,0.24V56.6
			c0,1.93,1.07,3.03,2.72,3.03c1.62,0,2.69-1.1,2.69-3.03V46.5c0-0.14,0.1-0.24,0.24-0.24h3.03c0.14,0,0.24,0.1,0.24,0.24v10.01
			c0,4.03-2.57,6.22-6.2,6.22C167.43,62.73,164.85,60.54,164.85,56.51z"/>
		<path class="st0" d="M180.3,46.5c0-0.14,0.1-0.24,0.24-0.24h6.03c2.84,0,4.82,1.22,5.6,3.65c0.29,0.91,0.43,1.81,0.43,4.46
			c0,2.65-0.14,3.55-0.43,4.46c-0.79,2.43-2.77,3.65-5.6,3.65h-6.03c-0.14,0-0.24-0.1-0.24-0.24V46.5z M183.95,59.35h1.83
			c1.62,0,2.6-0.48,3-1.79c0.17-0.48,0.26-1.1,0.26-3.19c0-2.1-0.1-2.72-0.26-3.2c-0.41-1.31-1.38-1.79-3-1.79h-1.83
			c-0.1,0-0.14,0.05-0.14,0.14v9.68C183.8,59.3,183.85,59.35,183.95,59.35z"/>
		<path class="st0" d="M198.27,62.47c-0.14,0-0.24-0.1-0.24-0.24v-6.22l-4.79-9.51c-0.05-0.12,0-0.24,0.17-0.24h3.1
			c0.17,0,0.29,0.07,0.36,0.24l2.93,5.91h0.07l2.93-5.91c0.07-0.17,0.19-0.24,0.36-0.24h3c0.17,0,0.24,0.12,0.17,0.24l-4.79,9.51
			v6.22c0,0.14-0.1,0.24-0.24,0.24H198.27z"/>
	</g>
</g>
</svg>
