<svg xmlns="http://www.w3.org/2000/svg" xmlns:xlink="http://www.w3.org/1999/xlink" viewBox="0 0 200 200"><defs><style>.a{fill:url(#a);}.b{fill:#424095;}</style><linearGradient id="a" x1="150.01" y1="13.38" x2="49.99" y2="186.62" gradientUnits="userSpaceOnUse"><stop offset="0" stop-color="#ffdc60"/><stop offset="1" stop-color="#fda76f"/></linearGradient></defs><circle class="a" cx="100" cy="100" r="100"/><path class="b" d="M56,60.93V88.36l-7.85.35V44.06l9.17-.35L69,70.49V44.41l7.44-.7V88.36l-7.21.7Z"/><path class="b" d="M84.69,43.71h22.85l-.7,7H93.48V61.46h9.46l0,7.56H93.48V81.68H108l-.7,7H84.69Z"/><path class="b" d="M127.47,88.71h-8.06l-9.14-44.65,9.61-.35,4.74,26.95,5.07-26.6,7.18-.35L141.62,71l5.74-26.89,8.06-.35-9.61,45H137.1l-4.77-27.48Z"/><path class="b" d="M27.31,103.71h9.2q8.88,0,13.28,5.61t4.39,17.06A41.62,41.62,0,0,1,53.8,132a30.49,30.49,0,0,1-1.19,5.25,22.41,22.41,0,0,1-2.06,4.58,14.59,14.59,0,0,1-3,3.64,13.48,13.48,0,0,1-4.13,2.38,15.15,15.15,0,0,1-5.3.87H27.31Zm8.76,7v30.94h1.26a7,7,0,0,0,2.93-.57,6.68,6.68,0,0,0,2.16-1.57,8.6,8.6,0,0,0,1.46-2.33,16,16,0,0,0,.91-2.84,24.16,24.16,0,0,0,.47-3.12c.09-1.08.13-2.14.13-3.2v-3.28c0-1.23-.06-2.48-.18-3.76a23.75,23.75,0,0,0-.64-3.77A11.2,11.2,0,0,0,43.19,114a6.89,6.89,0,0,0-2.38-2.33,7.15,7.15,0,0,0-3.71-.88Z"/><path class="b" d="M66.84,139.07l-2,9.64H57.05l9.49-44.47,12.51-.53,9.73,44.65-9.58.35-1.67-9.64ZM76,131.86l-4.13-21.53-3.4,21.53Z"/><path class="b" d="M88.13,110.74l.71-7h26.37l-.71,7h-8.41v37.62l-8.79.7V110.74Z"/><path class="b" d="M120.1,103.71H143l-.7,7H128.89v10.72h9.46l0,7.56h-9.43v12.66h14.53l-.71,7H120.1Z"/><path class="b" d="M165.55,113.2a8.63,8.63,0,0,0-1.05-1.76,4.4,4.4,0,0,0-1.45-1.2,4.76,4.76,0,0,0-2.17-.44,4.08,4.08,0,0,0-1.8.38,3.62,3.62,0,0,0-1.28,1,4.34,4.34,0,0,0-.74,1.49,6.2,6.2,0,0,0-.25,1.79,4.25,4.25,0,0,0,.23,1.43,5.1,5.1,0,0,0,.63,1.23,6.13,6.13,0,0,0,.89,1,7,7,0,0,0,1,.75l7.27,4.24a20.3,20.3,0,0,1,4.21,3.08,15.24,15.24,0,0,1,2.57,3.19,11.19,11.19,0,0,1,1.27,3.06,14.26,14.26,0,0,1,.41,2.67,15.32,15.32,0,0,1-1.1,5.93,13.37,13.37,0,0,1-3,4.58,13.69,13.69,0,0,1-4.55,3,16,16,0,0,1-10.83.19,14.23,14.23,0,0,1-4.17-2.36,15.57,15.57,0,0,1-3.17-3.58,20.19,20.19,0,0,1-2.15-4.46l7.44-3.49c.43.7.9,1.48,1.41,2.33a16.18,16.18,0,0,0,1.7,2.37,8.84,8.84,0,0,0,2.13,1.83,5.26,5.26,0,0,0,2.79.73,3.32,3.32,0,0,0,1.51-.36,4.32,4.32,0,0,0,1.26-1,5.61,5.61,0,0,0,.88-1.43,4.43,4.43,0,0,0,.33-1.69,5.72,5.72,0,0,0-.86-3.13,7.23,7.23,0,0,0-2.13-2.17l-7.88-4.66a18.07,18.07,0,0,1-3-2.14,14.47,14.47,0,0,1-2.37-2.65,12,12,0,0,1-1.57-3.12,11.22,11.22,0,0,1-.56-3.57,13.69,13.69,0,0,1,1.07-5.47,12.78,12.78,0,0,1,7.36-7,15.45,15.45,0,0,1,5.55-1,13,13,0,0,1,7.82,2.34,13.54,13.54,0,0,1,4.8,6.83l-7.44,3.37C166.18,114.57,165.85,113.86,165.55,113.2Z"/></svg>