<svg xmlns="http://www.w3.org/2000/svg" xmlns:xlink="http://www.w3.org/1999/xlink" viewBox="0 0 200 200"><defs><style>.a{fill:url(#a);}.b{fill:url(#b);}.c{fill:#2e2e66;}</style><linearGradient id="a" x1="150.01" y1="13.38" x2="49.99" y2="186.62" gradientUnits="userSpaceOnUse"><stop offset="0" stop-color="#ffc76b"/><stop offset="1" stop-color="#ff5b9d"/></linearGradient><linearGradient id="b" x1="150.01" y1="188.62" x2="49.99" y2="15.38" gradientTransform="matrix(1, 0, 0, -1, 0, 202)" gradientUnits="userSpaceOnUse"><stop offset="0" stop-color="#ffdc60"/><stop offset="1" stop-color="#fda76f"/></linearGradient></defs><circle class="a" cx="100" cy="100" r="100"/><circle class="b" cx="100" cy="100" r="100"/><path class="c" d="M67.76,75.61V95.72L62,96V63.24L68.73,63l8.51,19.64V63.5L82.69,63V95.72l-5.28.52Z"/><path class="c" d="M88.77,63h16.76L105,68.14h-9.8V76h6.94l0,5.54H95.22v9.28h10.66L105.36,96H88.77Z"/><path class="c" d="M120.14,96h-5.91l-6.7-32.74,7-.26,3.48,19.77,3.71-19.51L127,63l3.48,20,4.21-19.72,5.91-.26-7,33h-6.38l-3.5-20.15Z"/><path class="c" d="M46.7,103h6.74q6.51,0,9.74,4.12t3.22,12.51a29.46,29.46,0,0,1-.28,4.11,22.8,22.8,0,0,1-.87,3.85,16.55,16.55,0,0,1-1.52,3.36,10.71,10.71,0,0,1-2.23,2.67,9.86,9.86,0,0,1-3,1.75,11.26,11.26,0,0,1-3.89.63H46.7Zm6.42,5.16v22.69H54a5.12,5.12,0,0,0,2.15-.42,4.7,4.7,0,0,0,1.58-1.15,6.22,6.22,0,0,0,1.08-1.71,11.34,11.34,0,0,0,.66-2.09,16.68,16.68,0,0,0,.35-2.28c.06-.79.09-1.57.09-2.35v-2.4c0-.9,0-1.82-.13-2.76a16.93,16.93,0,0,0-.47-2.76,8.23,8.23,0,0,0-1-2.42,5.11,5.11,0,0,0-1.75-1.71,5.24,5.24,0,0,0-2.72-.64Z"/><path class="c" d="M75.68,128.91,74.24,136H68.5l7-32.61,9.18-.39,7.13,32.74-7,.26-1.23-7.07Zm6.68-5.28-3-15.79-2.49,15.79Z"/><path class="c" d="M91.3,108.14l.51-5.16h19.34l-.52,5.16h-6.16v27.58l-6.45.52v-28.1Z"/><path class="c" d="M114.74,103H131.5l-.52,5.16h-9.8V116h6.94l0,5.54h-6.92v9.29h10.66l-.52,5.15H114.74Z"/><path class="c" d="M148.07,109.94a6.77,6.77,0,0,0-.77-1.29,3.37,3.37,0,0,0-1.07-.88,3.48,3.48,0,0,0-1.59-.32,2.91,2.91,0,0,0-1.32.28,2.66,2.66,0,0,0-.93.75,3.16,3.16,0,0,0-.55,1.1,4.64,4.64,0,0,0-.18,1.3,3.06,3.06,0,0,0,.17,1.06,3.47,3.47,0,0,0,.46.9,4.66,4.66,0,0,0,.66.74,4.5,4.5,0,0,0,.73.55l5.33,3.11a15.25,15.25,0,0,1,3.09,2.25,11.55,11.55,0,0,1,1.88,2.34,8.4,8.4,0,0,1,.93,2.25,9.56,9.56,0,0,1,.3,2,11.31,11.31,0,0,1-.8,4.35,9.74,9.74,0,0,1-5.57,5.52,11.77,11.77,0,0,1-7.93.14,10.61,10.61,0,0,1-3.07-1.73,11.69,11.69,0,0,1-2.32-2.62,15,15,0,0,1-1.57-3.28l5.45-2.56c.32.52.66,1.09,1,1.71a13.72,13.72,0,0,0,1.25,1.74,6.25,6.25,0,0,0,1.57,1.34,3.81,3.81,0,0,0,2,.54,2.42,2.42,0,0,0,1.11-.27,3.06,3.06,0,0,0,.92-.73,4,4,0,0,0,.64-1.05,3.09,3.09,0,0,0,.25-1.24,4.2,4.2,0,0,0-.63-2.3A5.63,5.63,0,0,0,146,124l-5.78-3.41A13,13,0,0,1,138,119a11,11,0,0,1-1.74-1.94,8.79,8.79,0,0,1-1.15-2.29,8.31,8.31,0,0,1-.41-2.62,10.06,10.06,0,0,1,.78-4,9.7,9.7,0,0,1,2.15-3.13,9.58,9.58,0,0,1,3.25-2,11.27,11.27,0,0,1,4.07-.72,9.58,9.58,0,0,1,5.73,1.72,9.93,9.93,0,0,1,3.53,5l-5.46,2.47C148.53,111,148.29,110.43,148.07,109.94Z"/></svg>