<svg xmlns="http://www.w3.org/2000/svg" xmlns:xlink="http://www.w3.org/1999/xlink" viewBox="0 0 200 200"><defs><style>.a{fill:url(#a);}.b{fill:#2e2e66;}</style><linearGradient id="a" x1="150.01" y1="188.62" x2="49.99" y2="15.38" gradientTransform="matrix(1, 0, 0, -1, 0, 202)" gradientUnits="userSpaceOnUse"><stop offset="0" stop-color="#ffdc60"/><stop offset="1" stop-color="#fda76f"/></linearGradient></defs><circle class="a" cx="100" cy="100" r="100"/><path class="b" d="M67.76,75.61V95.72L62,96V63.24L68.73,63l8.51,19.64V63.5L82.69,63V95.72l-5.28.52Z"/><path class="b" d="M88.77,63h16.76L105,68.14h-9.8V76h6.94l0,5.54H95.22v9.28h10.66L105.36,96H88.77Z"/><path class="b" d="M120.14,96h-5.91l-6.7-32.74,7-.26,3.48,19.77,3.71-19.51L127,63l3.48,20,4.21-19.72,5.91-.26-7,33h-6.38l-3.5-20.15Z"/><path class="b" d="M22,103v27.85H33.21l-1,5.15H15.61V103.5Z"/><path class="b" d="M45.19,136.67a9,9,0,0,1-3.68-.71,8,8,0,0,1-2.72-2,10.61,10.61,0,0,1-1.87-3,20.92,20.92,0,0,1-1.16-3.76,33.34,33.34,0,0,1-.6-4.29c-.11-1.5-.17-3-.17-4.58a33.28,33.28,0,0,1,.59-6.44,15.69,15.69,0,0,1,1.84-5.07,9.08,9.08,0,0,1,3.16-3.26,8.91,8.91,0,0,1,4.61-1.15A8.58,8.58,0,0,1,53,106.85a15.69,15.69,0,0,1,1.85,5.07,32.51,32.51,0,0,1,.59,6.44c0,1.55-.05,3.08-.17,4.58a31.65,31.65,0,0,1-.61,4.29A21.77,21.77,0,0,1,53.5,131a10.86,10.86,0,0,1-1.88,3,7.93,7.93,0,0,1-2.73,2A9,9,0,0,1,45.19,136.67Zm0-5.48a2.59,2.59,0,0,0,2.06-.89,6.24,6.24,0,0,0,1.16-2.55,22.33,22.33,0,0,0,.5-4c.07-1.58.11-3.36.11-5.33q0-1,0-2.16c0-.75-.08-1.53-.17-2.34a21.75,21.75,0,0,0-.37-2.35,8.77,8.77,0,0,0-.68-2,4.23,4.23,0,0,0-1.06-1.39,2.31,2.31,0,0,0-1.52-.53,2.25,2.25,0,0,0-1.5.53,4.06,4.06,0,0,0-1,1.39,9.29,9.29,0,0,0-.67,2,21.75,21.75,0,0,0-.37,2.35c-.09.81-.14,1.59-.17,2.34s0,1.47,0,2.16c0,2,0,3.75.11,5.33a23.35,23.35,0,0,0,.49,4,6.11,6.11,0,0,0,1.14,2.55A2.54,2.54,0,0,0,45.19,131.19Z"/><path class="b" d="M78.16,129.2A11.8,11.8,0,0,1,76.43,133a8.94,8.94,0,0,1-2.92,2.65,8.25,8.25,0,0,1-4.15,1,8.54,8.54,0,0,1-3.64-.74,8.43,8.43,0,0,1-2.72-2,11.89,11.89,0,0,1-1.9-3,20,20,0,0,1-1.21-3.72,31.63,31.63,0,0,1-.65-4.12c-.12-1.43-.19-2.84-.19-4.23a31,31,0,0,1,.24-3.79,25,25,0,0,1,.75-3.78,18.67,18.67,0,0,1,1.34-3.46,11.76,11.76,0,0,1,2-2.83A9,9,0,0,1,66.05,103a8.17,8.17,0,0,1,3.46-.71,7.26,7.26,0,0,1,3.88,1,9.45,9.45,0,0,1,2.88,2.72,13,13,0,0,1,1.79,3.82,15.16,15.16,0,0,1,.63,4.32l-6.23.32c0-.12,0-.37,0-.76s-.06-.86-.13-1.38-.18-1.07-.31-1.65a7.55,7.55,0,0,0-.57-1.6,3.94,3.94,0,0,0-.93-1.21,2,2,0,0,0-1.35-.47,1.93,1.93,0,0,0-1.34.51,4.06,4.06,0,0,0-1,1.35,9.46,9.46,0,0,0-.67,2,23.76,23.76,0,0,0-.41,2.39c-.1.84-.16,1.7-.2,2.57s0,1.72,0,2.53c0,1,0,2.06,0,3.08s.11,2,.23,2.9a19.88,19.88,0,0,0,.46,2.54,7.81,7.81,0,0,0,.77,2,4,4,0,0,0,1.16,1.33,2.64,2.64,0,0,0,1.6.49,2.19,2.19,0,0,0,1.65-.68,5.11,5.11,0,0,0,1-1.71,10.64,10.64,0,0,0,.55-2.24c.12-.81.2-1.57.26-2.29l5.48.52A17.35,17.35,0,0,1,78.16,129.2Z"/><path class="b" d="M88,128.91,86.55,136H80.81l7-32.61L97,103l7.13,32.74-7,.26-1.23-7.07Zm6.68-5.28-3-15.79-2.49,15.79Z"/><path class="b" d="M103.61,108.14l.51-5.16h19.34l-.51,5.16h-6.17v27.58l-6.45.52v-28.1Z"/><path class="b" d="M127.05,103.5l6.44-.52v32.74l-6.44.52Z"/><path class="b" d="M148.58,136.67a9,9,0,0,1-3.69-.71,8,8,0,0,1-2.72-2,10.61,10.61,0,0,1-1.87-3,21.76,21.76,0,0,1-1.16-3.76,35.19,35.19,0,0,1-.6-4.29c-.11-1.5-.17-3-.17-4.58a33.28,33.28,0,0,1,.59-6.44,16.17,16.17,0,0,1,1.84-5.07,9.1,9.1,0,0,1,3.17-3.26,8.88,8.88,0,0,1,4.61-1.15,9,9,0,0,1,4.63,1.15,9.18,9.18,0,0,1,3.2,3.26,15.69,15.69,0,0,1,1.84,5.07,32.48,32.48,0,0,1,.6,6.44c0,1.55-.06,3.08-.18,4.58a30.14,30.14,0,0,1-.61,4.29,20.93,20.93,0,0,1-1.18,3.76,10.63,10.63,0,0,1-1.88,3,7.93,7.93,0,0,1-2.73,2A9,9,0,0,1,148.58,136.67Zm0-5.48a2.57,2.57,0,0,0,2-.89,6.11,6.11,0,0,0,1.16-2.55,22.33,22.33,0,0,0,.5-4c.07-1.58.11-3.36.11-5.33q0-1,0-2.16c0-.75-.08-1.53-.16-2.34a21.74,21.74,0,0,0-.38-2.35,8.32,8.32,0,0,0-.68-2,4.1,4.1,0,0,0-1.06-1.39,2.42,2.42,0,0,0-3,0,4.19,4.19,0,0,0-1,1.39,9.29,9.29,0,0,0-.67,2,21.75,21.75,0,0,0-.37,2.35c-.09.81-.14,1.59-.16,2.34s0,1.47,0,2.16c0,2,0,3.75.11,5.33a22.33,22.33,0,0,0,.5,4,5.87,5.87,0,0,0,1.14,2.55A2.54,2.54,0,0,0,148.58,131.19Z"/><path class="b" d="M169.48,115.61v20.11l-5.76.26V103.24l6.73-.26L179,122.62V103.5l5.45-.52v32.74l-5.28.52Z"/></svg>